<svg width="1000" height="219" viewBox="0 0 1000 219" fill="none" xmlns="http://www.w3.org/2000/svg">
<path d="M6.91639 48.5309C27.2485 24.2163 86.2284 40.0414 138.651 83.8776C191.073 127.714 217.087 182.96 196.755 207.275C176.423 231.59 117.443 215.764 65.0209 171.928C12.5989 128.092 -13.4152 72.8456 6.91639 48.5309ZM104.8 84.1911C73.3714 54.5713 35.7286 43.4672 20.723 59.3893C5.71754 75.3114 19.0307 112.231 50.4594 141.85C81.888 171.47 119.531 182.574 134.537 166.652C149.542 150.73 136.229 113.811 104.8 84.1911Z" fill="#FF00A6"/>
<path d="M183.491 18.7535C206.33 40.7302 186.435 98.4634 139.054 147.704C91.6722 196.946 34.7464 219.048 11.9073 197.072C-10.9315 175.095 8.96386 117.362 56.3451 68.1205C103.727 18.8792 160.652 -3.22306 183.491 18.7535ZM141.098 113.914C172.835 84.6253 186.534 47.8484 171.697 31.7701C156.859 15.6918 119.102 26.4007 87.3645 55.6897C55.6274 84.9786 41.9279 121.757 56.7659 137.835C71.604 153.913 109.361 143.203 141.098 113.914Z" fill="#FF00A6"/>
<path d="M997.33 66.1489V80.2221H941.319V66.1489H997.33ZM957.643 40.2542H974.25V143.27C974.25 147.961 974.93 151.479 976.29 153.825C977.698 156.124 979.48 157.672 981.638 158.469C983.843 159.22 986.165 159.595 988.604 159.595C990.434 159.595 991.935 159.501 993.108 159.314C994.281 159.079 995.219 158.891 995.923 158.751L999.3 173.668C998.174 174.09 996.603 174.513 994.586 174.935C992.568 175.404 990.012 175.638 986.916 175.638C982.225 175.638 977.627 174.63 973.124 172.613C968.667 170.596 964.961 167.523 962.006 163.395C959.098 159.267 957.643 154.06 957.643 147.774V40.2542Z" fill="#FF00A6"/>
<path d="M910.023 175.639V67.5563H926.629V175.639H910.023ZM918.467 49.5426C915.23 49.5426 912.439 48.4402 910.093 46.2354C907.794 44.0306 906.645 41.3801 906.645 38.284C906.645 35.1879 907.794 32.5375 910.093 30.3327C912.439 28.1279 915.23 27.0255 918.467 27.0255C921.703 27.0255 924.471 28.1279 926.77 30.3327C929.115 32.5375 930.288 35.1879 930.288 38.284C930.288 41.3801 929.115 44.0306 926.77 46.2354C924.471 48.4402 921.703 49.5426 918.467 49.5426Z" fill="#FF00A6"/>
<path d="M800.098 173.386V29.2768H816.705V82.4735H818.112C819.332 80.5971 821.021 78.2047 823.179 75.2962C825.383 72.3408 828.526 69.7138 832.608 67.4152C836.736 65.0697 842.318 63.8969 849.355 63.8969C858.455 63.8969 866.477 66.1721 873.42 70.7224C880.363 75.2727 885.781 81.723 889.675 90.0731C893.568 98.4232 895.515 108.274 895.515 119.627C895.515 131.073 893.568 140.995 889.675 149.392C885.781 157.742 880.386 164.215 873.49 168.813C866.594 173.363 858.643 175.638 849.636 175.638C842.693 175.638 837.134 174.489 832.959 172.19C828.784 169.845 825.571 167.194 823.319 164.239C821.068 161.237 819.332 158.75 818.112 156.78H816.142V173.386H800.098ZM816.423 119.345C816.423 127.508 817.62 134.709 820.012 140.948C822.405 147.14 825.899 151.995 830.497 155.514C835.094 158.985 840.723 160.721 847.385 160.721C854.327 160.721 860.121 158.891 864.765 155.232C869.456 151.526 872.974 146.554 875.32 140.314C877.712 134.028 878.909 127.039 878.909 119.345C878.909 111.746 877.736 104.897 875.39 98.7985C873.092 92.6532 869.597 87.7979 864.906 84.2327C860.261 80.6206 854.421 78.8145 847.385 78.8145C840.629 78.8145 834.953 80.5267 830.356 83.9512C825.759 87.3288 822.287 92.0668 819.942 98.1652C817.596 104.217 816.423 111.277 816.423 119.345Z" fill="#FF00A6"/>
<path d="M731.458 175.639V67.5564H747.502V83.8813H748.628C750.598 78.5335 754.163 74.1943 759.323 70.8636C764.484 67.5329 770.3 65.8676 776.774 65.8676C777.994 65.8676 779.518 65.8911 781.348 65.938C783.177 65.9849 784.561 66.0553 785.5 66.1491V83.0369C784.937 82.8962 783.647 82.6851 781.629 82.4036C779.659 82.0753 777.572 81.9111 775.367 81.9111C770.113 81.9111 765.422 83.0135 761.294 85.2183C757.212 87.3762 753.976 90.3785 751.583 94.2251C749.238 98.0249 748.065 102.364 748.065 107.243V175.639H731.458Z" fill="#FF00A6"/>
<path d="M712.028 101.614C712.028 116.813 709.284 129.948 703.795 141.019C698.307 152.09 690.777 160.627 681.208 166.632C671.638 172.637 660.708 175.639 648.417 175.639C636.126 175.639 625.196 172.637 615.626 166.632C606.057 160.627 598.527 152.09 593.039 141.019C587.55 129.948 584.806 116.813 584.806 101.614C584.806 86.4146 587.55 73.2797 593.039 62.2087C598.527 51.1378 606.057 42.6001 615.626 36.5955C625.196 30.5909 636.126 27.5886 648.417 27.5886C660.708 27.5886 671.638 30.5909 681.208 36.5955C690.777 42.6001 698.307 51.1378 703.795 62.2087C709.284 73.2797 712.028 86.4146 712.028 101.614ZM695.14 101.614C695.14 89.1355 693.053 78.604 688.878 70.0194C684.749 61.4347 679.144 54.9376 672.06 50.528C665.023 46.1184 657.142 43.9135 648.417 43.9135C639.692 43.9135 631.787 46.1184 624.704 50.528C617.667 54.9376 612.061 61.4347 607.886 70.0194C603.758 78.604 601.694 89.1355 601.694 101.614C601.694 114.092 603.758 124.623 607.886 133.208C612.061 141.793 617.667 148.29 624.704 152.699C631.787 157.109 639.692 159.314 648.417 159.314C657.142 159.314 665.023 157.109 672.06 152.699C679.144 148.29 684.749 141.793 688.878 133.208C693.053 124.623 695.14 114.092 695.14 101.614Z" fill="#FF00A6"/>
<path d="M489.684 211.666C486.87 211.666 484.36 211.431 482.155 210.962C479.95 210.54 478.426 210.118 477.581 209.696L481.803 195.059C485.838 196.091 489.403 196.467 492.499 196.185C495.595 195.904 498.339 194.52 500.732 192.034C503.171 189.594 505.399 185.63 507.416 180.142L510.513 171.698L470.545 63.0527H488.558L518.394 149.181H519.519L549.355 63.0527H567.368L521.49 186.897C519.426 192.479 516.869 197.1 513.82 200.759C510.771 204.465 507.229 207.209 503.195 208.992C499.207 210.774 494.704 211.666 489.684 211.666Z" fill="#FF00A6"/>
<path d="M416.298 173.668C409.449 173.668 403.233 172.378 397.651 169.798C392.068 167.171 387.635 163.395 384.351 158.469C381.068 153.497 379.426 147.492 379.426 140.456C379.426 134.263 380.645 129.244 383.085 125.397C385.524 121.504 388.784 118.454 392.866 116.25C396.947 114.045 401.45 112.403 406.376 111.324C411.348 110.198 416.344 109.307 421.364 108.65C427.931 107.806 433.256 107.172 437.337 106.75C441.465 106.281 444.467 105.507 446.344 104.428C448.267 103.349 449.229 101.473 449.229 98.7989V98.236C449.229 91.2932 447.329 85.8985 443.529 82.0518C439.776 78.2051 434.077 76.2818 426.43 76.2818C418.502 76.2818 412.287 78.0175 407.783 81.4889C403.28 84.9602 400.113 88.6662 398.284 92.6067L382.522 86.9774C385.336 80.4099 389.089 75.2966 393.78 71.6376C398.518 67.9317 403.679 65.3516 409.261 63.8973C414.89 62.3962 420.426 61.6456 425.867 61.6456C429.339 61.6456 433.326 62.0678 437.83 62.9122C442.38 63.7097 446.766 65.375 450.988 67.9082C455.257 70.4414 458.799 74.2646 461.613 79.3779C464.428 84.4911 465.835 91.3401 465.835 99.9248V171.135H449.229V156.499H448.384C447.259 158.845 445.382 161.354 442.755 164.028C440.128 166.702 436.633 168.977 432.271 170.854C427.908 172.73 422.584 173.668 416.298 173.668ZM418.831 158.751C425.398 158.751 430.934 157.461 435.437 154.881C439.987 152.301 443.412 148.97 445.711 144.889C448.056 140.807 449.229 136.515 449.229 132.012V116.813C448.525 117.657 446.977 118.431 444.585 119.135C442.239 119.791 439.518 120.378 436.422 120.894C433.373 121.363 430.394 121.785 427.486 122.16C424.624 122.489 422.302 122.77 420.52 123.005C416.204 123.568 412.169 124.483 408.417 125.749C404.711 126.969 401.708 128.822 399.41 131.308C397.158 133.747 396.032 137.078 396.032 141.3C396.032 147.07 398.167 151.433 402.435 154.388C406.751 157.297 412.216 158.751 418.831 158.751Z" fill="#FF00A6"/>
<path d="M273.647 171.135V27.0255H322.341C333.646 27.0255 342.887 29.0661 350.065 33.1473C357.289 37.1816 362.637 42.6467 366.108 49.5426C369.58 56.4385 371.315 64.1318 371.315 72.6227C371.315 81.1135 369.58 88.8303 366.108 95.7731C362.684 102.716 357.383 108.251 350.206 112.379C343.028 116.461 333.834 118.501 322.622 118.501H287.72V103.021H322.059C329.799 103.021 336.015 101.684 340.706 99.0099C345.397 96.336 348.798 92.7239 350.909 88.1736C353.067 83.5763 354.146 78.3927 354.146 72.6227C354.146 66.8527 353.067 61.6925 350.909 57.1421C348.798 52.5918 345.374 49.0266 340.636 46.4465C335.898 43.8195 329.612 42.506 321.778 42.506H291.098V171.135H273.647Z" fill="#FF00A6"/>
</svg>
