<svg width="1000" height="219" viewBox="0 0 1000 219" fill="none" xmlns="http://www.w3.org/2000/svg">
<path d="M6.91686 48.5302C27.2493 24.2161 86.2281 40.0419 138.65 83.8779C191.073 127.714 217.087 182.961 196.755 207.275C176.423 231.59 117.444 215.765 65.0214 171.929C12.5989 128.093 -13.4153 72.8448 6.91686 48.5302ZM104.8 84.1913C73.3709 54.5716 35.7281 43.4675 20.7225 59.3896C5.71755 75.3118 19.0314 112.23 50.4598 141.85C81.8886 171.469 119.53 182.573 134.536 166.651C149.542 150.729 136.228 113.811 104.8 84.1913Z" fill="#00FFBB"/>
<path d="M183.491 18.7529C206.33 40.7294 186.435 98.4636 139.053 147.705C91.6716 196.946 34.7468 219.048 11.9076 197.072C-10.9316 175.095 8.96384 117.361 56.3454 68.12C103.727 18.8791 160.651 -3.22312 183.491 18.7529ZM141.098 113.915C172.835 84.6257 186.535 47.8478 171.697 31.7695C156.859 15.6912 119.102 26.4012 87.3648 55.6901C55.6277 84.979 41.9284 121.756 56.7663 137.834C71.6043 153.913 109.361 143.204 141.098 113.915Z" fill="#00FFBB"/>
<path d="M997.33 66.1487V80.2219H941.318V66.1487H997.33ZM957.643 40.254H974.25V143.27C974.25 147.961 974.93 151.479 976.29 153.825C977.698 156.123 979.48 157.672 981.638 158.469C983.843 159.22 986.165 159.595 988.604 159.595C990.434 159.595 991.935 159.501 993.108 159.313C994.281 159.079 995.219 158.891 995.922 158.75L999.3 173.668C998.174 174.09 996.603 174.512 994.585 174.935C992.568 175.404 990.012 175.638 986.916 175.638C982.224 175.638 977.627 174.63 973.124 172.613C968.667 170.595 964.961 167.523 962.006 163.395C959.098 159.267 957.643 154.059 957.643 147.773V40.254Z" fill="#00FFBB"/>
<path d="M910.023 175.638V67.5561H926.629V175.638H910.023ZM918.467 49.5424C915.23 49.5424 912.438 48.44 910.093 46.2352C907.794 44.0304 906.645 41.3799 906.645 38.2838C906.645 35.1877 907.794 32.5373 910.093 30.3325C912.438 28.1277 915.23 27.0253 918.467 27.0253C921.703 27.0253 924.471 28.1277 926.77 30.3325C929.115 32.5373 930.288 35.1877 930.288 38.2838C930.288 41.3799 929.115 44.0304 926.77 46.2352C924.471 48.44 921.703 49.5424 918.467 49.5424Z" fill="#00FFBB"/>
<path d="M800.098 173.386V29.2766H816.705V82.4734H818.112C819.332 80.5969 821.021 78.2045 823.178 75.296C825.383 72.3406 828.526 69.7136 832.607 67.415C836.736 65.0695 842.318 63.8967 849.355 63.8967C858.455 63.8967 866.477 66.1719 873.42 70.7222C880.363 75.2726 885.781 81.7228 889.674 90.0729C893.568 98.423 895.515 108.274 895.515 119.627C895.515 131.073 893.568 140.994 889.674 149.391C885.781 157.742 880.386 164.215 873.49 168.813C866.594 173.363 858.643 175.638 849.636 175.638C842.693 175.638 837.134 174.489 832.959 172.19C828.784 169.845 825.571 167.194 823.319 164.239C821.067 161.236 819.332 158.75 818.112 156.78H816.142V173.386H800.098ZM816.423 119.345C816.423 127.508 817.62 134.708 820.012 140.948C822.404 147.14 825.899 151.995 830.496 155.513C835.094 158.985 840.723 160.72 847.384 160.72C854.327 160.72 860.121 158.891 864.765 155.232C869.456 151.526 872.974 146.553 875.32 140.314C877.712 134.028 878.908 127.039 878.908 119.345C878.908 111.746 877.736 104.897 875.39 98.7983C873.091 92.653 869.597 87.7977 864.905 84.2325C860.261 80.6204 854.421 78.8143 847.384 78.8143C840.629 78.8143 834.953 80.5266 830.356 83.951C825.758 87.3286 822.287 92.0666 819.942 98.165C817.596 104.216 816.423 111.277 816.423 119.345Z" fill="#00FFBB"/>
<path d="M731.458 175.639V67.5563H747.502V83.8813H748.628C750.598 78.5335 754.163 74.1942 759.323 70.8635C764.483 67.5329 770.3 65.8676 776.774 65.8676C777.994 65.8676 779.518 65.891 781.348 65.9379C783.177 65.9848 784.561 66.0552 785.499 66.149V83.0369C784.936 82.8961 783.646 82.685 781.629 82.4036C779.659 82.0752 777.572 81.911 775.367 81.911C770.113 81.911 765.422 83.0134 761.294 85.2182C757.212 87.3761 753.975 90.3784 751.583 94.2251C749.237 98.0248 748.065 102.364 748.065 107.243V175.639H731.458Z" fill="#00FFBB"/>
<path d="M712.028 101.614C712.028 116.813 709.284 129.948 703.795 141.019C698.306 152.09 690.777 160.627 681.208 166.632C671.638 172.636 660.708 175.639 648.417 175.639C636.126 175.639 625.196 172.636 615.626 166.632C606.057 160.627 598.527 152.09 593.039 141.019C587.55 129.948 584.806 116.813 584.806 101.614C584.806 86.4145 587.55 73.2795 593.039 62.2086C598.527 51.1377 606.057 42.5999 615.626 36.5954C625.196 30.5908 636.126 27.5885 648.417 27.5885C660.708 27.5885 671.638 30.5908 681.208 36.5954C690.777 42.5999 698.306 51.1377 703.795 62.2086C709.284 73.2795 712.028 86.4145 712.028 101.614ZM695.14 101.614C695.14 89.1353 693.052 78.6039 688.877 70.0192C684.749 61.4346 679.143 54.9374 672.06 50.5278C665.023 46.1182 657.142 43.9134 648.417 43.9134C639.692 43.9134 631.787 46.1182 624.704 50.5278C617.667 54.9374 612.061 61.4346 607.886 70.0192C603.758 78.6039 601.694 89.1353 601.694 101.614C601.694 114.092 603.758 124.623 607.886 133.208C612.061 141.793 617.667 148.29 624.704 152.699C631.787 157.109 639.692 159.314 648.417 159.314C657.142 159.314 665.023 157.109 672.06 152.699C679.143 148.29 684.749 141.793 688.877 133.208C693.052 124.623 695.14 114.092 695.14 101.614Z" fill="#00FFBB"/>
<path d="M489.684 211.666C486.869 211.666 484.36 211.431 482.155 210.962C479.95 210.54 478.426 210.118 477.581 209.695L481.803 195.059C485.837 196.091 489.403 196.467 492.499 196.185C495.595 195.904 498.339 194.52 500.732 192.034C503.171 189.594 505.399 185.63 507.416 180.142L510.512 171.698L470.545 63.0526H488.558L518.393 149.181H519.519L549.355 63.0526H567.368L521.49 186.897C519.426 192.479 516.869 197.1 513.82 200.759C510.77 204.465 507.229 207.209 503.194 208.992C499.207 210.774 494.704 211.666 489.684 211.666Z" fill="#00FFBB"/>
<path d="M416.297 173.668C409.448 173.668 403.233 172.378 397.65 169.798C392.068 167.171 387.635 163.395 384.351 158.469C381.067 153.497 379.426 147.492 379.426 140.455C379.426 134.263 380.645 129.244 383.085 125.397C385.524 121.504 388.784 118.454 392.866 116.25C396.947 114.045 401.45 112.403 406.376 111.324C411.348 110.198 416.344 109.307 421.364 108.65C427.931 107.806 433.256 107.172 437.337 106.75C441.465 106.281 444.467 105.507 446.344 104.428C448.267 103.349 449.229 101.473 449.229 98.7988V98.2359C449.229 91.2931 447.329 85.8983 443.529 82.0517C439.776 78.205 434.077 76.2816 426.43 76.2816C418.502 76.2816 412.287 78.0173 407.783 81.4887C403.28 84.9601 400.113 88.6661 398.284 92.6066L382.522 86.9773C385.336 80.4098 389.089 75.2965 393.78 71.6375C398.518 67.9315 403.678 65.3514 409.261 63.8972C414.89 62.3961 420.426 61.6455 425.867 61.6455C429.339 61.6455 433.326 62.0677 437.829 62.9121C442.38 63.7096 446.766 65.3749 450.988 67.9081C455.257 70.4413 458.799 74.2645 461.613 79.3778C464.428 84.491 465.835 91.34 465.835 99.9246V171.135H449.229V156.499H448.384C447.258 158.844 445.382 161.354 442.755 164.028C440.128 166.702 436.633 168.977 432.271 170.854C427.908 172.73 422.583 173.668 416.297 173.668ZM418.831 158.751C425.398 158.751 430.934 157.461 435.437 154.881C439.987 152.3 443.412 148.97 445.71 144.889C448.056 140.807 449.229 136.515 449.229 132.012V116.812C448.525 117.657 446.977 118.431 444.585 119.135C442.239 119.791 439.518 120.378 436.422 120.894C433.373 121.363 430.394 121.785 427.486 122.16C424.624 122.489 422.302 122.77 420.519 123.005C416.204 123.568 412.169 124.482 408.416 125.749C404.71 126.969 401.708 128.822 399.41 131.308C397.158 133.747 396.032 137.078 396.032 141.3C396.032 147.07 398.166 151.433 402.435 154.388C406.751 157.296 412.216 158.751 418.831 158.751Z" fill="#00FFBB"/>
<path d="M273.647 171.135V27.0253H322.34C333.646 27.0253 342.887 29.0659 350.065 33.1471C357.289 37.1814 362.637 42.6465 366.108 49.5424C369.58 56.4383 371.315 64.1316 371.315 72.6225C371.315 81.1133 369.58 88.8301 366.108 95.7729C362.684 102.716 357.383 108.251 350.205 112.379C343.028 116.461 333.834 118.501 322.622 118.501H287.72V103.021H322.059C329.799 103.021 336.015 101.684 340.706 99.0098C345.397 96.3358 348.798 92.7237 350.909 88.1734C353.067 83.5761 354.146 78.3925 354.146 72.6225C354.146 66.8525 353.067 61.6923 350.909 57.1419C348.798 52.5916 345.374 49.0264 340.636 46.4463C335.898 43.8193 329.612 42.5058 321.778 42.5058H291.098V171.135H273.647Z" fill="#00FFBB"/>
</svg>
