<svg width="1000" height="219" viewBox="0 0 1000 219" fill="none" xmlns="http://www.w3.org/2000/svg">
<path d="M6.91691 48.5302C27.2493 24.2162 86.2282 40.042 138.65 83.8779C191.073 127.714 217.087 182.961 196.755 207.275C176.423 231.59 117.444 215.765 65.0214 171.929C12.599 128.093 -13.4152 72.8448 6.91691 48.5302ZM104.8 84.1914C73.371 54.5716 35.7282 43.4676 20.7226 59.3896C5.71755 75.3119 19.0314 112.23 50.4599 141.85C81.8886 171.469 119.53 182.573 134.536 166.651C149.542 150.729 136.228 113.811 104.8 84.1914Z" fill="#020202"/>
<path d="M183.491 18.7527C206.33 40.7293 186.435 98.4634 139.053 147.705C91.6716 196.946 34.7468 219.048 11.9076 197.072C-10.9315 175.095 8.96399 117.362 56.3454 68.1208C103.727 18.8798 160.651 -3.22324 183.491 18.7527ZM141.098 113.915C172.835 84.6256 186.535 47.8477 171.697 31.7694C156.859 15.6911 119.102 26.401 87.3648 55.69C55.6277 84.9788 41.9285 121.756 56.7663 137.834C71.6043 153.912 109.361 143.203 141.098 113.915Z" fill="#020202"/>
<path d="M997.335 66.1464V80.2196H941.323V66.1464H997.335ZM957.648 40.2516H974.255V143.268C974.255 147.959 974.935 151.477 976.295 153.822C977.702 156.121 979.485 157.669 981.643 158.467C983.848 159.217 986.17 159.592 988.609 159.592C990.439 159.592 991.94 159.499 993.113 159.311C994.285 159.076 995.224 158.889 995.927 158.748L999.305 173.666C998.179 174.088 996.607 174.51 994.59 174.932C992.573 175.401 990.016 175.636 986.92 175.636C982.229 175.636 977.632 174.627 973.129 172.61C968.672 170.593 964.966 167.52 962.011 163.392C959.102 159.264 957.648 154.057 957.648 147.771V40.2516Z" fill="#020202"/>
<path d="M910.027 175.636V67.5538H926.634V175.636H910.027ZM918.471 49.5401C915.235 49.5401 912.443 48.4377 910.098 46.2329C907.799 44.0281 906.65 41.3776 906.65 38.2815C906.65 35.1854 907.799 32.535 910.098 30.3302C912.443 28.1254 915.235 27.023 918.471 27.023C921.708 27.023 924.476 28.1254 926.775 30.3302C929.12 32.535 930.293 35.1854 930.293 38.2815C930.293 41.3776 929.12 44.0281 926.775 46.2329C924.476 48.4377 921.708 49.5401 918.471 49.5401Z" fill="#020202"/>
<path d="M800.103 173.384V29.2743H816.71V82.471H818.117C819.337 80.5946 821.025 78.2022 823.183 75.2937C825.388 72.3383 828.531 69.7113 832.612 67.4127C836.74 65.0672 842.323 63.8944 849.359 63.8944C858.46 63.8944 866.482 66.1696 873.425 70.7199C880.367 75.2703 885.786 81.7205 889.679 90.0706C893.573 98.4207 895.52 108.272 895.52 119.624C895.52 131.071 893.573 140.992 889.679 149.389C885.786 157.739 880.391 164.213 873.495 168.81C866.599 173.361 858.648 175.636 849.641 175.636C842.698 175.636 837.139 174.486 832.964 172.188C828.789 169.842 825.576 167.192 823.324 164.236C821.072 161.234 819.337 158.748 818.117 156.778H816.147V173.384H800.103ZM816.428 119.343C816.428 127.505 817.624 134.706 820.017 140.945C822.409 147.137 825.904 151.993 830.501 155.511C835.099 158.982 840.728 160.718 847.389 160.718C854.332 160.718 860.125 158.889 864.77 155.23C869.461 151.524 872.979 146.551 875.324 140.312C877.717 134.026 878.913 127.036 878.913 119.343C878.913 111.743 877.74 104.894 875.395 98.796C873.096 92.6507 869.601 87.7954 864.91 84.2302C860.266 80.6181 854.426 78.812 847.389 78.812C840.634 78.812 834.958 80.5243 830.361 83.9487C825.763 87.3263 822.292 92.0643 819.946 98.1627C817.601 104.214 816.428 111.274 816.428 119.343Z" fill="#020202"/>
<path d="M731.463 175.636V67.5539H747.507V83.8789H748.632C750.603 78.531 754.168 74.1918 759.328 70.8611C764.488 67.5305 770.305 65.8651 776.779 65.8651C777.999 65.8651 779.523 65.8886 781.353 65.9355C783.182 65.9824 784.566 66.0528 785.504 66.1466V83.0345C784.941 82.8937 783.651 82.6826 781.634 82.4012C779.664 82.0728 777.576 81.9086 775.372 81.9086C770.118 81.9086 765.426 83.011 761.298 85.2158C757.217 87.3737 753.98 90.376 751.588 94.2227C749.242 98.0224 748.07 102.362 748.07 107.24V175.636H731.463Z" fill="#020202"/>
<path d="M712.033 101.611C712.033 116.81 709.288 129.945 703.8 141.016C698.311 152.087 690.782 160.625 681.212 166.629C671.643 172.634 660.712 175.636 648.422 175.636C636.131 175.636 625.201 172.634 615.631 166.629C606.061 160.625 598.532 152.087 593.044 141.016C587.555 129.945 584.811 116.81 584.811 101.611C584.811 86.4121 587.555 73.2772 593.044 62.2062C598.532 51.1353 606.061 42.5976 615.631 36.593C625.201 30.5884 636.131 27.5861 648.422 27.5861C660.712 27.5861 671.643 30.5884 681.212 36.593C690.782 42.5976 698.311 51.1353 703.8 62.2062C709.288 73.2772 712.033 86.4121 712.033 101.611ZM695.145 101.611C695.145 89.133 693.057 78.6015 688.882 70.0169C684.754 61.4322 679.148 54.9351 672.065 50.5255C665.028 46.1159 657.147 43.911 648.422 43.911C639.696 43.911 631.792 46.1159 624.708 50.5255C617.672 54.9351 612.066 61.4322 607.891 70.0169C603.763 78.6015 601.699 89.133 601.699 101.611C601.699 114.089 603.763 124.621 607.891 133.206C612.066 141.79 617.672 148.287 624.708 152.697C631.792 157.107 639.696 159.311 648.422 159.311C657.147 159.311 665.028 157.107 672.065 152.697C679.148 148.287 684.754 141.79 688.882 133.206C693.057 124.621 695.145 114.089 695.145 101.611Z" fill="#020202"/>
<path d="M489.689 211.663C486.874 211.663 484.365 211.429 482.16 210.96C479.955 210.537 478.43 210.115 477.586 209.693L481.808 195.057C485.842 196.089 489.408 196.464 492.504 196.183C495.6 195.901 498.344 194.517 500.736 192.031C503.176 189.592 505.404 185.628 507.421 180.139L510.517 171.695L470.549 63.0502H488.563L518.398 149.178H519.524L549.359 63.0502H567.373L521.494 186.894C519.43 192.477 516.874 197.098 513.825 200.757C510.775 204.463 507.234 207.207 503.199 208.989C499.212 210.772 494.708 211.663 489.689 211.663Z" fill="#020202"/>
<path d="M416.302 173.666C409.453 173.666 403.238 172.376 397.655 169.796C392.073 167.169 387.64 163.392 384.356 158.467C381.072 153.494 379.43 147.49 379.43 140.453C379.43 134.261 380.65 129.241 383.09 125.395C385.529 121.501 388.789 118.452 392.87 116.247C396.952 114.042 401.455 112.401 406.381 111.322C411.353 110.196 416.349 109.304 421.369 108.648C427.936 107.803 433.261 107.17 437.342 106.748C441.47 106.279 444.472 105.505 446.349 104.426C448.272 103.347 449.234 101.47 449.234 98.7964V98.2335C449.234 91.2907 447.334 85.896 443.534 82.0493C439.781 78.2026 434.081 76.2793 426.435 76.2793C418.507 76.2793 412.291 78.015 407.788 81.4864C403.285 84.9578 400.118 88.6637 398.289 92.6042L382.527 86.9749C385.341 80.4074 389.094 75.2942 393.785 71.6351C398.523 67.9292 403.683 65.3491 409.266 63.8949C414.895 62.3937 420.43 61.6432 425.872 61.6432C429.343 61.6432 433.331 62.0654 437.834 62.9097C442.385 63.7072 446.771 65.3725 450.993 67.9057C455.262 70.4389 458.803 74.2621 461.618 79.3754C464.433 84.4887 465.84 91.3376 465.84 99.9223V171.133H449.234V156.497H448.389C447.263 158.842 445.387 161.352 442.76 164.026C440.133 166.7 436.638 168.975 432.275 170.851C427.913 172.728 422.588 173.666 416.302 173.666ZM418.835 158.748C425.403 158.748 430.938 157.458 435.442 154.878C439.992 152.298 443.417 148.967 445.715 144.886C448.061 140.805 449.234 136.513 449.234 132.009V116.81C448.53 117.655 446.982 118.429 444.589 119.132C442.244 119.789 439.523 120.375 436.427 120.891C433.378 121.36 430.399 121.783 427.491 122.158C424.629 122.486 422.307 122.768 420.524 123.002C416.208 123.565 412.174 124.48 408.421 125.747C404.715 126.966 401.713 128.819 399.414 131.306C397.163 133.745 396.037 137.076 396.037 141.298C396.037 147.068 398.171 151.43 402.44 154.386C406.756 157.294 412.221 158.748 418.835 158.748Z" fill="#020202"/>
<path d="M273.652 171.133V27.023H322.345C333.651 27.023 342.892 29.0636 350.07 33.1448C357.294 37.1791 362.642 42.6442 366.113 49.5401C369.584 56.436 371.32 64.1293 371.32 72.6202C371.32 81.111 369.584 88.8278 366.113 95.7706C362.689 102.713 357.388 108.249 350.21 112.377C343.033 116.458 333.838 118.499 322.627 118.499H287.725V103.018H322.064C329.804 103.018 336.02 101.681 340.711 99.0074C345.402 96.3335 348.803 92.7214 350.914 88.1711C353.072 83.5738 354.151 78.3902 354.151 72.6202C354.151 66.8502 353.072 61.69 350.914 57.1396C348.803 52.5893 345.378 49.0241 340.64 46.444C335.903 43.817 329.616 42.5035 321.782 42.5035H291.103V171.133H273.652Z" fill="#020202"/>
</svg>
