<svg width="726" height="185" viewBox="0 0 726 185" fill="none" xmlns="http://www.w3.org/2000/svg">
<path d="M723.683 39.1234V53.1966H667.671V39.1234H723.683ZM683.996 13.2287H700.603V116.245C700.603 120.936 701.283 124.454 702.643 126.8C704.05 129.098 705.833 130.646 707.991 131.444C710.196 132.194 712.518 132.57 714.957 132.57C716.787 132.57 718.288 132.476 719.461 132.288C720.633 132.054 721.572 131.866 722.275 131.725L725.653 146.643C724.527 147.065 722.955 147.487 720.938 147.909C718.921 148.378 716.364 148.613 713.268 148.613C708.577 148.613 703.98 147.604 699.477 145.587C695.02 143.57 691.314 140.497 688.359 136.369C685.45 132.241 683.996 127.034 683.996 120.748V13.2287Z" fill="white"/>
<path d="M636.375 148.613V40.5309H652.982V148.613H636.375ZM644.819 22.5171C641.583 22.5171 638.791 21.4147 636.446 19.2099C634.147 17.0051 632.998 14.3547 632.998 11.2586C632.998 8.16247 634.147 5.51201 636.446 3.3072C638.791 1.1024 641.583 0 644.819 0C648.056 0 650.824 1.1024 653.123 3.3072C655.468 5.51201 656.641 8.16247 656.641 11.2586C656.641 14.3547 655.468 17.0051 653.123 19.2099C650.824 21.4147 648.056 22.5171 644.819 22.5171Z" fill="white"/>
<path d="M526.451 146.361V2.25135H543.058V55.4481H544.465C545.685 53.5717 547.373 51.1792 549.531 48.2708C551.736 45.3154 554.879 42.6884 558.96 40.3898C563.088 38.0442 568.671 36.8715 575.707 36.8715C584.808 36.8715 592.83 39.1466 599.773 43.697C606.715 48.2473 612.134 54.6975 616.027 63.0476C619.921 71.3977 621.868 81.249 621.868 92.6014C621.868 104.048 619.921 113.969 616.027 122.366C612.134 130.716 606.739 137.19 599.843 141.787C592.947 146.338 584.996 148.613 575.989 148.613C569.046 148.613 563.487 147.463 559.312 145.165C555.137 142.819 551.924 140.169 549.672 137.213C547.42 134.211 545.685 131.725 544.465 129.755H542.495V146.361H526.451ZM542.776 92.3199C542.776 100.482 543.972 107.683 546.365 113.922C548.757 120.115 552.252 124.97 556.849 128.488C561.447 131.959 567.076 133.695 573.737 133.695C580.68 133.695 586.473 131.866 591.118 128.207C595.809 124.501 599.327 119.528 601.673 113.289C604.065 107.003 605.261 100.013 605.261 92.3199C605.261 84.7204 604.088 77.8714 601.743 71.773C599.444 65.6277 595.949 60.7725 591.258 57.2072C586.614 53.5951 580.774 51.7891 573.737 51.7891C566.982 51.7891 561.306 53.5013 556.709 56.9258C552.111 60.3034 548.64 65.0413 546.294 71.1397C543.949 77.1912 542.776 84.2513 542.776 92.3199Z" fill="white"/>
<path d="M457.811 148.613V40.531H473.855V56.8559H474.98C476.951 51.5081 480.516 47.1688 485.676 43.8382C490.836 40.5075 496.653 38.8422 503.127 38.8422C504.347 38.8422 505.871 38.8656 507.701 38.9126C509.53 38.9595 510.914 39.0298 511.852 39.1237V56.0115C511.289 55.8708 509.999 55.6597 507.982 55.3782C506.012 55.0498 503.924 54.8857 501.72 54.8857C496.466 54.8857 491.775 55.9881 487.646 58.1929C483.565 60.3508 480.328 63.353 477.936 67.1997C475.59 70.9995 474.418 75.3387 474.418 80.2174V148.613H457.811Z" fill="white"/>
<path d="M438.381 74.5882C438.381 89.7873 435.636 102.922 430.148 113.993C424.659 125.064 417.13 133.602 407.56 139.606C397.991 145.611 387.06 148.613 374.77 148.613C362.479 148.613 351.549 145.611 341.979 139.606C332.409 133.602 324.88 125.064 319.392 113.993C313.903 102.922 311.159 89.7873 311.159 74.5882C311.159 59.3892 313.903 46.2542 319.392 35.1833C324.88 24.1123 332.409 15.5746 341.979 9.57002C351.549 3.56545 362.479 0.563162 374.77 0.563162C387.06 0.563162 397.991 3.56545 407.56 9.57002C417.13 15.5746 424.659 24.1123 430.148 35.1833C435.636 46.2542 438.381 59.3892 438.381 74.5882ZM421.493 74.5882C421.493 62.11 419.405 51.5786 415.23 42.9939C411.102 34.4092 405.496 27.9121 398.413 23.5025C391.376 19.0929 383.495 16.8881 374.77 16.8881C366.044 16.8881 358.14 19.0929 351.056 23.5025C344.02 27.9121 338.414 34.4092 334.239 42.9939C330.111 51.5786 328.047 62.11 328.047 74.5882C328.047 87.0665 330.111 97.598 334.239 106.183C338.414 114.767 344.02 121.264 351.056 125.674C358.14 130.084 366.044 132.288 374.77 132.288C383.495 132.288 391.376 130.084 398.413 125.674C405.496 121.264 411.102 114.767 415.23 106.183C419.405 97.598 421.493 87.0665 421.493 74.5882Z" fill="white"/>
<path d="M216.037 184.64C213.222 184.64 210.713 184.406 208.508 183.937C206.303 183.515 204.778 183.092 203.934 182.67L208.156 168.034C212.19 169.066 215.756 169.441 218.852 169.16C221.948 168.878 224.692 167.494 227.084 165.008C229.524 162.569 231.752 158.605 233.769 153.116L236.865 144.672L196.897 36.0272H214.911L244.746 122.155H245.872L275.707 36.0272H293.721L247.842 159.872C245.778 165.454 243.222 170.075 240.173 173.734C237.123 177.44 233.582 180.184 229.547 181.966C225.56 183.749 221.056 184.64 216.037 184.64Z" fill="white"/>
<path d="M142.65 146.643C135.801 146.643 129.586 145.353 124.003 142.773C118.421 140.146 113.988 136.37 110.704 131.444C107.42 126.471 105.778 120.467 105.778 113.43C105.778 107.238 106.998 102.219 109.438 98.3718C111.877 94.4783 115.137 91.4291 119.218 89.2243C123.3 87.0195 127.803 85.3776 132.729 84.2986C137.701 83.1728 142.697 82.2815 147.717 81.6247C154.284 80.7803 159.609 80.147 163.69 79.7248C167.818 79.2557 170.82 78.4817 172.697 77.4028C174.62 76.3238 175.582 74.4474 175.582 71.7735V71.2105C175.582 64.2678 173.682 58.873 169.882 55.0264C166.129 51.1797 160.429 49.2563 152.783 49.2563C144.855 49.2563 138.639 50.992 134.136 54.4634C129.633 57.9348 126.466 61.6408 124.637 65.5813L108.875 59.952C111.689 53.3845 115.442 48.2712 120.133 44.6122C124.871 40.9062 130.031 38.3261 135.614 36.8719C141.243 35.3708 146.778 34.6202 152.22 34.6202C155.691 34.6202 159.679 35.0424 164.182 35.8868C168.733 36.6843 173.119 38.3496 177.341 40.8828C181.61 43.4159 185.151 47.2392 187.966 52.3524C190.781 57.4657 192.188 64.3147 192.188 72.8993V144.11H175.582V129.474H174.737C173.611 131.819 171.735 134.329 169.108 137.003C166.481 139.677 162.986 141.952 158.623 143.828C154.261 145.705 148.936 146.643 142.65 146.643ZM145.183 131.725C151.751 131.725 157.286 130.435 161.79 127.855C166.34 125.275 169.765 121.944 172.063 117.863C174.409 113.782 175.582 109.49 175.582 104.986V89.7872C174.878 90.6316 173.33 91.4056 170.937 92.1093C168.592 92.766 165.871 93.3524 162.775 93.8684C159.726 94.3375 156.747 94.7597 153.839 95.135C150.977 95.4634 148.655 95.7448 146.872 95.9794C142.556 96.5423 138.522 97.4571 134.769 98.7237C131.063 99.9434 128.061 101.796 125.762 104.283C123.511 106.722 122.385 110.053 122.385 114.275C122.385 120.045 124.519 124.407 128.788 127.363C133.104 130.271 138.569 131.725 145.183 131.725Z" fill="white"/>
<path d="M0 144.11V0H48.6933C59.9988 0 69.2402 2.04062 76.4175 6.12185C83.6418 10.1562 88.9896 15.6213 92.461 22.5171C95.9324 29.413 97.6681 37.1064 97.6681 45.5972C97.6681 54.0881 95.9324 61.8049 92.461 68.7477C89.0365 75.6904 83.7356 81.2259 76.5583 85.354C69.3809 89.4353 60.1864 91.4759 48.9748 91.4759H14.0732V75.9954H48.4118C56.1521 75.9954 62.3678 74.6584 67.0589 71.9845C71.7499 69.3106 75.151 65.6985 77.2619 61.1481C79.4198 56.5509 80.4988 51.3672 80.4988 45.5972C80.4988 39.8272 79.4198 34.667 77.2619 30.1167C75.151 25.5663 71.7265 22.0011 66.9885 19.421C62.2505 16.794 55.9645 15.4805 48.1304 15.4805H17.4508V144.11H0Z" fill="white"/>
</svg>
