<svg width="204" height="209" viewBox="0 0 204 209" fill="none" xmlns="http://www.w3.org/2000/svg">
<path fill-rule="evenodd" clip-rule="evenodd" d="M6.91634 38.2786C27.2485 13.964 86.2283 29.7891 138.651 73.6252C191.073 117.461 217.087 172.708 196.755 197.023C176.423 221.337 117.443 205.512 65.0208 161.676C12.5988 117.84 -13.4151 62.5934 6.91634 38.2786ZM104.8 73.9387C73.3714 44.319 35.7286 33.2149 20.723 49.137C5.71766 65.059 19.031 101.977 50.4593 131.597C81.8879 161.217 119.531 172.321 134.536 156.4C149.542 140.478 136.229 103.558 104.8 73.9387Z" fill="#020202"/>
<path fill-rule="evenodd" clip-rule="evenodd" d="M183.492 8.50101C206.33 30.4778 186.434 88.2109 139.053 137.452C91.6713 186.693 34.7465 208.796 11.9074 186.819C-10.9316 164.842 8.96385 107.109 56.3451 57.868C103.727 8.62675 160.652 -13.4755 183.492 8.50101ZM141.098 103.662C172.835 74.3729 186.534 37.596 171.697 21.5176C156.859 5.43929 119.102 16.1482 87.3646 45.4372C55.6275 74.7262 41.928 111.504 56.766 127.582C71.6041 143.661 109.361 132.951 141.098 103.662Z" fill="#020202"/>
</svg>
