<svg width="204" height="209" viewBox="0 0 204 209" fill="none" xmlns="http://www.w3.org/2000/svg">
<path d="M6.91667 38.2782C27.249 13.9641 86.2279 29.7891 138.65 73.6249C191.072 117.461 217.087 172.709 196.755 197.023C176.422 221.338 117.443 205.513 65.0212 161.677C12.5988 117.841 -13.4154 62.5928 6.91667 38.2782ZM104.799 73.9394C73.3708 44.3197 35.728 33.2147 20.7223 49.1366C5.71673 65.0587 19.0309 101.978 50.4596 131.598C81.8883 161.217 119.53 172.321 134.536 156.399C149.541 140.477 136.228 103.559 104.799 73.9394Z" fill="white"/>
<path d="M183.49 8.50066C206.33 30.4772 186.434 88.2114 139.053 137.453C91.6712 186.694 34.7463 208.796 11.9072 186.82C-10.932 164.843 8.96346 107.109 56.345 57.8677C103.726 8.62687 160.651 -13.4752 183.49 8.50066ZM141.098 103.662C172.835 74.3735 186.535 37.5956 171.697 21.5173C156.859 5.43912 119.102 16.149 87.3644 45.4379C55.6274 74.7268 41.9281 111.504 56.7659 127.582C71.6039 143.66 109.361 132.951 141.098 103.662Z" fill="white"/>
</svg>
