<svg width="204" height="209" viewBox="0 0 204 209" fill="none" xmlns="http://www.w3.org/2000/svg">
<path fill-rule="evenodd" clip-rule="evenodd" d="M6.91639 38.2784C27.2485 13.9638 86.2284 29.789 138.651 73.6251C191.073 117.461 217.087 172.708 196.755 197.023C176.423 221.337 117.443 205.512 65.0209 161.676C12.5989 117.84 -13.4152 62.5932 6.91639 38.2784ZM104.8 73.9386C73.3714 44.3189 35.7286 33.2148 20.723 49.1368C5.71754 65.0589 19.0307 101.978 50.4594 131.598C81.888 161.217 119.531 172.321 134.536 156.4C149.542 140.478 136.229 103.558 104.8 73.9386Z" fill="#00FFBB"/>
<path fill-rule="evenodd" clip-rule="evenodd" d="M183.491 8.50101C206.33 30.4777 186.435 88.211 139.054 137.452C91.6721 186.693 34.7464 208.796 11.9073 186.819C-10.9315 164.842 8.96385 107.109 56.3451 57.868C103.727 8.62675 160.652 -13.4755 183.491 8.50101ZM141.098 103.662C172.835 74.3729 186.534 37.596 171.697 21.5176C156.859 5.43929 119.102 16.1483 87.3645 45.4372C55.6274 74.7262 41.9279 111.504 56.7659 127.582C71.604 143.661 109.361 132.951 141.098 103.662Z" fill="#00FFBB"/>
</svg>
